<svg xmlns="http://www.w3.org/2000/svg" viewBox="0 0 1800.99 498.45"><defs><style>.cls-1{fill:#b4cc34;}.cls-2{fill:#222;}.cls-3{font-size:71.58px;fill:#f7931e;font-family:Roboto-Medium, Roboto;font-weight:500;}.cls-4{letter-spacing:0.01em;}.cls-5{letter-spacing:0em;}.cls-6{letter-spacing:-0.01em;}.cls-7{letter-spacing:-0.01em;}.cls-8{letter-spacing:0em;}</style></defs><title>Bare Code Colorida</title><g id="Camada_2" data-name="Camada 2"><g id="triangulo_verde" data-name="triangulo verde"><polygon class="cls-1" points="372.99 28.52 39.99 259.52 312.99 477.52 372.99 28.52"/><polygon class="cls-1" points="405.99 54.52 326.99 485.52 688.99 274.52 405.99 54.52"/></g><g id="Camada_3" data-name="Camada 3"><path class="cls-2" d="M254.56,65.87,27,260.52,254.88,447.68a8.73,8.73,0,0,0,12.56-1.57L282,426.25a8.7,8.7,0,0,0-1.59-12C265.08,402,225.69,371.2,195,351.52c-39-25-151-95-151-95s145-90,185-114c28.14-16.89,45.39-32.79,53.15-40.73a8.72,8.72,0,0,0,1-11l-15.67-23.2A8.73,8.73,0,0,0,254.56,65.87Z"/><path class="cls-2" d="M97.64,135.58,1.6,252.13A7,7,0,0,0,1.53,261L95.22,378.29a7,7,0,0,0,11.16-.28l18.83-26.23a7,7,0,0,0-1.16-9.42C111,331.29,74.75,300.28,50,275.52c-12-12-12-17-12-17s32-43,44-55c9.5-9.51,33.44-22.93,43-28.1a7,7,0,0,0,3.61-7.07c-1.16-8.5-5.57-25.84-22.36-34.56A7,7,0,0,0,97.64,135.58Z"/><path class="cls-2" d="M449.06,460.57,676.64,265.92,448.75,78.75a8.72,8.72,0,0,0-12.56,1.58l-14.6,19.85a8.71,8.71,0,0,0,1.6,12c15.36,12.23,54.74,43.07,85.45,62.76,39,25,151,95,151,95s-145,90-185,114c-28.14,16.88-45.4,32.78-53.15,40.72a8.71,8.71,0,0,0-1,11l15.68,23.2A8.72,8.72,0,0,0,449.06,460.57Z"/><path class="cls-2" d="M606,390.85,702,274.3a7,7,0,0,0,.07-8.82L608.41,148.14a7,7,0,0,0-11.16.29l-18.83,26.22a7,7,0,0,0,1.16,9.42c13.08,11.07,49.3,42.08,74.06,66.85,12,12,12,17,12,17s-32,43-44,55c-9.51,9.5-33.45,22.93-43,28.09a7,7,0,0,0-3.61,7.07c1.16,8.5,5.56,25.84,22.36,34.56A7,7,0,0,0,606,390.85Z"/><path class="cls-2" d="M373.84.14l42.5,7.79A8.36,8.36,0,0,1,423,18.06c-11.38,48.79-67.71,292-74,349.46-5.51,50.36-11,103.19-13.12,123.43a8.37,8.37,0,0,1-9.43,7.43l-27.55-3.68a8.37,8.37,0,0,1-7.1-10c6.09-29.64,25.95-126.91,35.2-178.21,9.75-54.07,32.07-254.27,37-299.07A8.38,8.38,0,0,1,373.84.14Z"/></g><g id="Camada_4" data-name="Camada 4"><path class="cls-2" d="M929.45,239.49a86.61,86.61,0,0,0,10.54-5c41-23,39-54,32-72s-52-35-88-30c-30.91,4.29-75.83,19.64-87.91,23.9a2.22,2.22,0,0,0-.94,3.56l17.49,20a2.21,2.21,0,0,0,3,.34A184.28,184.28,0,0,1,860,157.16L783,336.52s19,43,87,28,96-73,91-95C957.48,254.11,939.76,244.1,929.45,239.49Zm3.54-91c66,9,16,72-17,77-20.73,3.14-43.81,3.91-58.12,4l33-80.44A143.48,143.48,0,0,1,933,148.52Zm11,128c-2,23-45,64-88,66-18.7.87-31.92-3.56-40.88-8.84l36.1-87.9c16.71,2.26,46.48,4.28,72.8-4.33C932.46,248.1,945.34,260.92,944,276.52Z"/><path class="cls-2" d="M1071.55,233.47,1046,215.91a3.22,3.22,0,0,0-3.93.21c-9.6,8.2-52.57,46.72-64.09,88.4-13,47,22,82,52,45s38-47,38-47-13,46-10,59,36,0,36,0-13-5-12-38c.81-26.81,19.43-64.16,26.4-77.25a3.23,3.23,0,0,0-2.86-4.75h-18.48a3.23,3.23,0,0,0-2.93,1.86c-5.87,12.53-40.33,84.54-63.13,99.14-25,16-24-22-10-46,12.9-22.12,41.08-46.78,60.3-57.56A3.24,3.24,0,0,0,1071.55,233.47Z"/><path class="cls-2" d="M1155.84,220c-6.54,14.4-38.94,87.41-43.76,130.67a1.51,1.51,0,0,0,.57,1.35l20.27,15.86a1.49,1.49,0,0,0,2.4-1c1.37-9.79,7.13-45.18,21.67-67.41a93.64,93.64,0,0,1,43-35s12,26,24,28l1.87-64.74a2.88,2.88,0,0,0-4.1-2.71,63.36,63.36,0,0,0-12.77,8.45c-11,9-50,52-50,52s16.47-38.15,26-53.09a2.89,2.89,0,0,0-1.35-4.25l-24.1-9.64A2.89,2.89,0,0,0,1155.84,220Z"/><path class="cls-2" d="M1272,356.52c-19-8-14-37-14-37,11-1,34-3,66-39s13-68-4-65c-17.2,3-51,14-74,61s-6,86,21,91,65-47,65-47S1291,364.52,1272,356.52Zm48-114c29,4-30,59-56,65C1264,307.52,1291,238.52,1320,242.52Z"/><path class="cls-2" d="M1319,196.52s37-25.93,46.07-49.27a1.73,1.73,0,0,1,2.9-.5l20,22.56a1.74,1.74,0,0,1-.07,2.38C1382.32,177.19,1356.86,200,1319,196.52Z"/><path class="cls-2" d="M1679.81,192.52H1622v178h57.82A31.18,31.18,0,0,0,1711,339.34V223.69A31.17,31.17,0,0,0,1679.81,192.52ZM1690,333.25a17.27,17.27,0,0,1-17.27,17.27H1645v-138h27.73A17.27,17.27,0,0,1,1690,229.78Z"/><path class="cls-2" d="M1480,311.52v34.77a4.24,4.24,0,0,1-4.23,4.23h-36.55a4.23,4.23,0,0,1-4.22-4.23V216.74a4.22,4.22,0,0,1,4.22-4.22h36.55a4.23,4.23,0,0,1,4.23,4.22v34.78h22V206a13.47,13.47,0,0,0-13.47-13.46h-62.07A13.46,13.46,0,0,0,1413,206V357.05a13.47,13.47,0,0,0,13.46,13.47h62.07A13.47,13.47,0,0,0,1502,357.05V311.52Z"/><path class="cls-2" d="M1585,249.75v96.54a4.24,4.24,0,0,1-4.23,4.23h-36.55a4.19,4.19,0,0,1-2.52-.86l-9,20.86h60.87A13.47,13.47,0,0,0,1607,357.05V206a13.35,13.35,0,0,0-.93-4.87Z"/><path class="cls-2" d="M1540,216.74a4.22,4.22,0,0,1,4.22-4.22h36.13l8.66-20h-57.55A13.46,13.46,0,0,0,1518,206V356.4l22-50.77Z"/><polygon points="1748.99 344.52 1748.99 289.52 1792.99 289.52 1792.99 270.52 1748.99 270.52 1748.99 215.52 1800.99 215.52 1800.99 192.52 1726.99 192.52 1726.99 370.52 1800.99 370.52 1800.99 344.52 1748.99 344.52"/><text transform="translate(1265.07 453.48)">TREI<tspan  x="148.79" y="0">N</tspan><tspan class="cls-5" x="200.24" y="0">AME</tspan><tspan class="cls-6" x="351.02" y="0">N</tspan><tspan class="cls-7" x="400.83" y="0">T</tspan><tspan class="cls-8" x="443.29" y="0">OS</tspan></text></g></g></svg>